<svg id="visual" viewBox="0 0 900 600" width="900" height="600" xmlns="http://www.w3.org/2000/svg" xmlns:xlink="http://www.w3.org/1999/xlink" version="1.1"><rect x="0" y="0" width="900" height="600" fill="#adcfe9"></rect><defs><linearGradient id="grad1_0" x1="33.3%" y1="0%" x2="100%" y2="100%"><stop offset="20%" stop-color="#dda757" stop-opacity="1"></stop><stop offset="80%" stop-color="#dda757" stop-opacity="1"></stop></linearGradient></defs><defs><linearGradient id="grad1_1" x1="33.3%" y1="0%" x2="100%" y2="100%"><stop offset="20%" stop-color="#dda757" stop-opacity="1"></stop><stop offset="80%" stop-color="#7dcdac" stop-opacity="1"></stop></linearGradient></defs><defs><linearGradient id="grad1_2" x1="33.3%" y1="0%" x2="100%" y2="100%"><stop offset="20%" stop-color="#adcfe9" stop-opacity="1"></stop><stop offset="80%" stop-color="#7dcdac" stop-opacity="1"></stop></linearGradient></defs><defs><linearGradient id="grad2_0" x1="0%" y1="0%" x2="66.7%" y2="100%"><stop offset="20%" stop-color="#dda757" stop-opacity="1"></stop><stop offset="80%" stop-color="#dda757" stop-opacity="1"></stop></linearGradient></defs><defs><linearGradient id="grad2_1" x1="0%" y1="0%" x2="66.7%" y2="100%"><stop offset="20%" stop-color="#7dcdac" stop-opacity="1"></stop><stop offset="80%" stop-color="#dda757" stop-opacity="1"></stop></linearGradient></defs><defs><linearGradient id="grad2_2" x1="0%" y1="0%" x2="66.7%" y2="100%"><stop offset="20%" stop-color="#7dcdac" stop-opacity="1"></stop><stop offset="80%" stop-color="#adcfe9" stop-opacity="1"></stop></linearGradient></defs><g transform="translate(900, 0)"><path d="M0 513.8C-73.9 512.7 -147.8 511.6 -196.6 474.7C-245.4 437.8 -269.1 365.1 -316.8 316.8C-364.5 268.5 -436.2 244.7 -473 195.9C-509.9 147.2 -511.8 73.6 -513.8 0L0 0Z" fill="#80d1d9"></path><path d="M0 342.5C-49.3 341.8 -98.5 341.1 -131.1 316.5C-163.6 291.8 -179.4 243.4 -211.2 211.2C-243 179 -290.8 163.1 -315.4 130.6C-339.9 98.1 -341.2 49.1 -342.5 0L0 0Z" fill="#a7c074"></path><path d="M0 171.3C-24.6 170.9 -49.3 170.5 -65.5 158.2C-81.8 145.9 -89.7 121.7 -105.6 105.6C-121.5 89.5 -145.4 81.6 -157.7 65.3C-170 49.1 -170.6 24.5 -171.3 0L0 0Z" fill="#dda757"></path></g><g transform="translate(0, 600)"><path d="M0 -513.8C52.8 -473.9 105.6 -434 172.2 -415.7C238.8 -397.5 319.2 -400.9 363.3 -363.3C407.4 -325.7 415.2 -247.2 434.2 -179.9C453.3 -112.5 483.5 -56.2 513.8 0L0 0Z" fill="#80d1d9"></path><path d="M0 -342.5C35.2 -315.9 70.4 -289.3 114.8 -277.2C159.2 -265 212.8 -267.2 242.2 -242.2C271.6 -217.2 276.8 -164.8 289.5 -119.9C302.2 -75 322.3 -37.5 342.5 0L0 0Z" fill="#a7c074"></path><path d="M0 -171.3C17.6 -158 35.2 -144.7 57.4 -138.6C79.6 -132.5 106.4 -133.6 121.1 -121.1C135.8 -108.6 138.4 -82.4 144.7 -60C151.1 -37.5 161.2 -18.7 171.3 0L0 0Z" fill="#dda757"></path></g></svg>