<svg id="svg" version="1.1" xmlns="http://www.w3.org/2000/svg" xmlns:xlink="http://www.w3.org/1999/xlink" width="400" height="108.15450643776823" viewBox="0, 0, 400,108.15450643776823"><g id="svgg"><path id="path0" d="M197.753 2.178 C 195.808 2.503,193.347 3.752,192.288 4.951 C 192.125 5.135,191.909 5.753,191.809 6.325 C 191.560 7.739,191.748 7.944,193.052 7.673 C 195.577 7.149,196.658 8.529,196.702 12.335 C 196.739 15.615,196.469 15.858,192.666 15.967 C 189.423 16.061,189.500 16.007,189.500 18.185 C 189.500 20.429,189.451 20.397,193.083 20.500 L 196.030 20.583 196.439 21.059 L 196.847 21.535 196.830 41.476 C 196.810 64.331,196.743 63.010,198.283 70.083 C 201.017 82.643,210.855 89.991,224.948 89.999 C 226.950 90.000,226.814 89.827,223.548 88.211 C 215.147 84.056,211.797 79.464,210.324 70.083 C 209.963 67.786,209.956 67.402,209.878 45.447 C 209.793 21.509,209.783 21.915,210.498 21.114 L 210.972 20.583 217.668 20.500 L 224.363 20.417 224.682 20.023 C 224.941 19.703,225.000 19.358,225.000 18.167 C 225.000 15.823,225.645 16.019,217.742 15.964 C 209.259 15.904,209.848 16.187,209.663 12.083 C 209.356 5.278,204.311 1.082,197.753 2.178 M280.917 15.851 C 275.445 16.168,270.605 17.526,265.150 20.273 C 261.523 22.100,261.101 22.121,260.014 20.521 C 256.865 15.884,248.047 15.100,243.887 19.086 C 242.377 20.533,242.904 22.198,244.763 21.856 C 246.184 21.594,246.978 21.801,247.641 22.605 C 248.816 24.030,248.833 24.468,248.833 52.666 C 248.833 76.666,248.841 77.306,249.152 77.690 L 249.470 78.083 257.777 78.131 C 268.237 78.191,267.333 78.416,267.333 75.748 C 267.333 73.577,267.259 73.500,265.171 73.499 C 261.516 73.497,261.835 74.961,261.834 58.167 C 261.833 40.937,261.892 40.099,263.448 35.505 C 265.795 28.577,270.438 23.279,275.924 21.269 C 276.378 21.103,277.313 20.755,278.000 20.497 C 280.462 19.573,289.555 18.435,290.766 18.900 C 290.914 18.956,292.243 19.076,293.719 19.165 C 295.195 19.254,297.156 19.472,298.077 19.650 C 300.237 20.068,301.467 20.189,301.586 19.996 C 301.885 19.512,296.048 17.254,293.404 16.831 C 292.814 16.737,291.713 16.515,290.957 16.337 C 289.587 16.015,285.664 15.647,284.083 15.692 C 283.625 15.705,282.200 15.776,280.917 15.851 M53.750 16.102 C 48.092 16.881,42.979 18.505,39.066 20.764 C 35.967 22.553,35.716 22.544,33.931 20.584 C 30.313 16.609,25.512 15.475,20.858 17.497 C 17.999 18.739,17.078 19.716,17.199 21.379 L 17.250 22.083 17.917 22.056 C 18.283 22.040,18.965 22.012,19.431 21.992 C 21.712 21.896,22.392 24.348,22.069 31.500 C 22.005 32.921,21.907 49.250,21.851 67.788 L 21.750 101.493 21.291 101.952 C 20.870 102.372,20.688 102.421,19.153 102.524 C 16.838 102.680,16.788 102.732,16.861 104.938 C 16.949 107.613,15.606 107.333,28.355 107.333 L 39.159 107.333 39.454 106.883 C 39.668 106.557,39.766 106.014,39.807 104.920 C 39.884 102.842,39.743 102.673,37.829 102.548 C 36.212 102.442,35.611 102.198,35.253 101.505 C 34.950 100.919,34.874 47.636,35.173 45.333 C 35.262 44.646,35.411 43.271,35.505 42.279 C 36.878 27.727,45.880 19.435,59.619 20.068 C 63.644 20.254,67.542 21.582,70.167 23.661 C 73.282 26.130,74.845 27.864,76.571 30.767 C 78.400 33.846,80.118 38.826,80.501 42.167 C 80.601 43.038,80.754 44.343,80.842 45.068 C 81.456 50.181,80.005 57.780,77.482 62.667 C 74.482 68.476,69.209 72.782,63.083 74.426 C 58.834 75.567,53.140 75.973,49.047 75.427 C 48.059 75.295,46.762 75.139,46.167 75.081 C 45.571 75.022,44.193 74.824,43.105 74.641 C 39.865 74.095,40.559 74.867,44.857 76.587 C 52.254 79.549,64.997 79.425,71.975 76.323 C 72.401 76.134,73.190 75.830,73.728 75.648 C 75.075 75.192,78.114 73.648,79.010 72.964 C 79.417 72.654,80.425 71.955,81.250 71.412 C 83.018 70.249,86.694 66.677,87.931 64.921 C 89.283 63.001,90.818 60.465,91.111 59.667 C 91.262 59.254,91.749 57.963,92.193 56.797 C 92.637 55.631,93.000 54.508,93.000 54.301 C 93.000 54.095,93.197 52.799,93.437 51.421 C 94.461 45.556,93.339 39.541,90.114 33.595 C 88.553 30.718,88.376 30.482,85.054 26.867 C 81.946 23.484,75.291 19.279,71.417 18.250 C 70.500 18.006,69.069 17.592,68.237 17.330 C 65.258 16.391,56.833 15.677,53.750 16.102 M140.167 16.342 C 139.571 16.415,137.984 16.592,136.639 16.736 C 125.160 17.966,112.607 27.015,109.110 36.583 C 104.904 48.091,107.353 59.565,115.817 68.012 C 125.406 77.580,142.622 81.260,155.123 76.413 C 160.610 74.285,160.553 73.823,154.917 74.744 C 139.977 77.186,127.912 72.412,122.923 62.083 C 120.953 58.004,119.522 51.898,120.192 50.427 C 120.690 49.335,118.260 49.425,149.555 49.333 C 177.332 49.252,177.865 49.244,178.097 48.926 C 178.389 48.527,178.425 44.694,178.155 42.720 C 177.284 36.355,171.806 27.943,165.694 23.585 C 158.339 18.340,147.953 15.394,140.167 16.342 M336.500 16.502 C 335.262 16.676,333.725 16.895,333.083 16.987 C 325.699 18.049,316.224 23.477,311.246 29.497 C 306.478 35.263,303.994 43.662,305.048 50.458 C 305.200 51.444,305.369 52.606,305.423 53.040 C 305.595 54.441,307.035 58.441,308.174 60.685 C 310.709 65.678,317.165 71.934,322.083 74.162 C 326.428 76.130,328.264 76.765,332.000 77.590 C 335.371 78.335,335.810 78.374,340.917 78.387 L 345.917 78.400 348.333 77.788 C 351.876 76.890,357.500 74.712,357.500 74.239 C 357.500 74.131,356.055 74.274,354.667 74.519 C 344.264 76.359,334.893 75.122,328.657 71.088 C 319.432 65.121,315.395 50.869,319.072 37.250 C 320.938 30.335,326.432 23.679,331.968 21.627 C 334.921 20.532,335.566 20.358,337.447 20.153 C 348.523 18.945,357.748 24.211,361.119 33.667 C 363.435 40.164,363.667 42.816,363.667 62.888 C 363.667 75.190,363.703 77.486,363.903 77.760 C 364.132 78.072,364.412 78.083,372.085 78.083 L 380.029 78.083 380.348 77.690 C 380.611 77.365,380.667 77.024,380.667 75.732 C 380.667 73.816,380.460 73.501,379.208 73.499 C 376.307 73.496,376.501 74.506,376.501 59.410 C 376.500 45.802,376.464 45.078,375.593 40.925 C 374.417 35.321,370.110 28.493,365.500 24.923 C 360.297 20.894,355.875 18.755,349.750 17.304 C 345.514 16.301,340.207 15.980,336.500 16.502 M147.917 20.397 C 148.375 20.545,149.384 20.819,150.159 21.005 C 155.808 22.361,162.001 28.629,163.494 34.500 C 163.599 34.912,163.865 35.813,164.085 36.500 C 165.003 39.366,165.479 42.990,165.048 43.831 C 164.503 44.893,165.885 44.834,142.629 44.790 L 121.341 44.750 120.879 44.286 C 119.745 43.149,120.799 37.328,123.000 32.564 C 126.123 25.804,132.397 21.031,139.301 20.164 C 141.181 19.928,146.948 20.084,147.917 20.397 " stroke="none" fill="#f8bbd0" fill-rule="evenodd"></path><path id="path1" d="M0.000 54.000 L 0.000 108.000 7.792 108.000 L 15.583 108.000 15.531 105.265 L 15.478 102.530 15.956 101.995 C 16.408 101.489,16.522 101.452,18.068 101.310 C 20.097 101.123,20.288 101.026,20.405 100.125 C 20.476 99.574,20.653 59.085,20.715 29.083 C 20.727 23.390,20.508 22.936,18.099 23.651 C 16.087 24.248,15.735 23.861,15.863 21.189 C 15.951 19.358,16.401 18.486,17.705 17.621 C 23.551 13.740,30.415 14.505,34.898 19.538 C 36.027 20.805,36.161 20.806,38.418 19.571 C 41.709 17.769,45.766 16.218,48.627 15.667 C 49.611 15.477,50.717 15.241,51.083 15.143 C 54.480 14.230,64.186 14.685,68.333 15.952 C 69.387 16.273,70.885 16.689,71.661 16.875 C 73.824 17.392,79.612 20.422,81.552 22.052 C 82.028 22.451,82.904 23.122,83.500 23.541 C 85.036 24.623,88.695 28.576,89.863 30.417 C 92.147 34.014,93.782 37.792,94.659 41.500 C 94.962 42.777,95.177 48.575,94.985 50.250 C 94.286 56.341,92.649 60.560,88.925 65.876 C 87.797 67.485,83.665 71.441,81.917 72.585 C 81.092 73.125,80.083 73.820,79.676 74.131 C 78.854 74.759,75.455 76.503,74.417 76.830 C 74.050 76.946,73.150 77.285,72.417 77.585 C 63.591 81.187,51.202 80.998,42.583 77.130 C 41.575 76.677,40.172 76.084,39.465 75.811 C 35.473 74.268,37.226 71.742,41.526 72.840 C 51.586 75.408,62.929 74.338,69.116 70.237 C 82.825 61.149,83.103 35.332,69.603 24.961 C 62.250 19.312,49.614 20.376,43.069 27.194 C 39.618 30.790,38.109 34.412,36.834 42.167 C 36.338 45.184,36.045 99.123,36.517 100.478 C 36.726 101.077,36.959 101.167,38.661 101.314 C 40.244 101.450,40.753 101.752,41.012 102.708 C 41.209 103.438,41.139 106.905,40.913 107.625 L 40.794 108.000 220.397 108.000 L 400.000 108.000 400.000 54.000 L 400.000 0.000 200.000 0.000 L 0.000 0.000 0.000 54.000 M202.946 1.140 C 208.138 2.918,210.750 6.290,210.950 11.472 C 211.009 12.984,211.115 13.874,211.268 14.118 L 211.498 14.486 218.208 14.535 C 226.821 14.597,226.415 14.404,226.304 18.392 C 226.205 21.965,226.742 21.729,218.466 21.833 C 211.275 21.924,211.569 21.878,211.326 22.938 C 210.912 24.742,211.205 65.553,211.661 69.667 C 212.748 79.471,217.754 85.085,228.651 88.723 C 232.592 90.039,233.015 90.377,231.634 91.106 C 230.454 91.729,223.528 91.577,219.083 90.831 C 214.725 90.099,210.227 88.549,208.047 87.027 C 207.792 86.850,207.161 86.432,206.645 86.099 C 202.350 83.330,198.163 76.392,196.844 69.856 C 196.665 68.973,196.406 67.762,196.267 67.167 C 195.367 63.303,195.333 62.394,195.333 41.668 C 195.333 23.938,195.311 22.356,195.058 22.145 C 194.860 21.981,194.022 21.893,192.062 21.833 C 188.420 21.722,188.172 21.481,188.187 18.083 C 188.202 14.948,188.563 14.602,191.887 14.537 C 195.347 14.468,195.336 14.475,195.329 12.200 C 195.321 9.658,194.864 8.876,193.502 9.075 C 190.456 9.520,190.053 9.306,190.223 7.333 C 190.497 4.159,192.208 2.385,196.167 1.174 C 199.139 0.265,200.373 0.259,202.946 1.140 M288.667 14.575 C 289.629 14.704,291.092 14.961,291.917 15.145 C 292.742 15.330,293.982 15.598,294.673 15.740 C 297.738 16.372,303.731 18.732,304.504 19.613 C 305.924 21.231,304.315 22.376,301.500 21.750 C 295.974 20.520,286.975 19.871,284.000 20.486 C 283.496 20.591,282.296 20.822,281.333 21.001 C 272.210 22.696,265.998 29.192,263.722 39.417 L 263.277 41.417 263.210 56.386 C 263.131 73.999,262.859 72.081,265.454 72.204 C 268.461 72.347,268.760 72.685,268.734 75.917 C 268.704 79.688,269.532 79.417,258.076 79.417 C 249.471 79.417,248.873 79.398,248.437 79.112 C 247.448 78.464,247.500 79.934,247.499 52.547 C 247.498 31.086,247.462 27.175,247.249 25.762 C 246.873 23.270,246.322 22.689,244.837 23.216 C 242.646 23.995,241.667 23.284,241.667 20.917 C 241.667 18.943,242.399 18.040,245.034 16.765 C 251.032 13.863,257.277 14.805,260.684 19.125 C 261.749 20.475,261.842 20.471,264.844 18.936 C 272.091 15.229,281.167 13.568,288.667 14.575 M147.833 15.170 C 163.600 17.148,176.534 28.126,179.444 42.000 C 179.911 44.227,179.882 49.297,179.399 49.945 C 178.733 50.838,179.776 50.807,149.901 50.821 C 122.310 50.833,122.049 50.836,121.751 51.165 C 121.081 51.906,122.058 56.745,123.584 60.244 C 128.686 71.941,140.309 76.218,157.768 72.823 C 161.150 72.165,161.999 72.169,162.569 72.846 C 163.523 73.981,163.085 74.521,160.163 75.812 C 151.706 79.548,147.296 80.363,139.310 79.670 C 125.747 78.491,115.350 72.173,109.138 61.333 C 107.050 57.690,105.538 50.998,105.749 46.333 C 105.949 41.911,106.866 37.889,108.335 34.992 C 110.461 30.798,113.866 26.374,116.607 24.246 C 117.312 23.698,118.532 22.746,119.319 22.129 C 121.590 20.350,125.875 18.246,129.930 16.919 C 133.463 15.762,135.349 15.402,140.333 14.937 C 141.517 14.827,146.275 14.974,147.833 15.170 M343.417 14.988 C 347.372 15.175,352.729 16.363,355.830 17.740 C 356.703 18.128,357.904 18.623,358.500 18.841 C 360.788 19.677,366.112 23.498,368.750 26.197 C 372.279 29.806,373.844 32.166,375.585 36.500 C 377.680 41.715,377.697 41.889,377.819 58.389 C 377.931 73.606,377.727 72.045,379.631 72.249 C 381.799 72.480,382.000 72.787,382.000 75.849 C 382.000 78.310,381.843 78.815,380.966 79.185 C 380.037 79.577,363.729 79.522,363.123 79.125 C 362.214 78.529,362.257 79.321,362.152 61.417 C 362.032 41.111,361.993 40.603,360.123 35.012 C 357.646 27.601,352.206 22.906,344.750 21.742 C 340.987 21.155,335.855 21.392,334.197 22.229 C 333.951 22.353,333.131 22.659,332.374 22.908 C 330.664 23.472,327.363 25.749,326.342 27.071 C 325.982 27.536,325.414 28.179,325.079 28.500 C 323.554 29.959,320.466 36.364,320.003 39.027 C 319.902 39.608,319.662 40.833,319.470 41.750 C 319.176 43.150,319.117 44.043,319.102 47.333 C 319.018 65.364,330.833 75.838,349.000 73.838 C 352.240 73.481,354.522 73.127,356.250 72.712 C 358.794 72.101,359.901 72.103,360.431 72.718 C 361.475 73.930,360.420 75.077,357.333 76.087 C 356.829 76.251,355.929 76.606,355.333 76.875 C 350.355 79.120,344.237 80.247,339.185 79.849 C 332.055 79.287,329.319 78.688,324.083 76.541 C 313.498 72.201,305.597 62.787,304.003 52.617 C 303.813 51.407,303.586 50.004,303.498 49.500 C 302.947 46.336,304.292 38.721,306.003 35.329 C 310.963 25.490,318.033 20.008,330.833 16.073 C 331.606 15.836,335.061 15.285,337.417 15.025 C 339.159 14.832,340.014 14.826,343.417 14.988 M141.417 21.289 C 133.961 22.208,129.616 24.685,126.004 30.075 C 122.869 34.754,120.728 42.467,122.336 43.287 C 123.074 43.664,163.230 43.508,163.611 43.127 C 164.495 42.243,162.307 34.125,160.241 30.622 C 156.554 24.370,148.564 20.409,141.417 21.289 " stroke="none" fill="#fafafa" fill-rule="evenodd"></path><path id="path2" d="M198.027 1.520 C 194.864 2.046,191.821 3.913,191.342 5.620 C 190.639 8.124,190.959 8.655,192.975 8.327 C 195.375 7.937,196.039 8.743,196.067 12.078 C 196.092 15.213,195.956 15.333,192.384 15.333 C 189.001 15.333,188.932 15.398,189.027 18.503 C 189.104 21.028,189.067 21.000,192.227 21.001 C 194.775 21.002,195.734 21.170,195.998 21.663 C 196.109 21.870,196.167 28.663,196.167 41.531 C 196.167 62.035,196.239 64.237,196.998 66.833 C 197.092 67.154,197.318 68.207,197.500 69.172 C 200.135 83.105,210.294 90.681,226.324 90.664 C 230.300 90.660,230.436 90.278,226.917 88.998 C 216.222 85.109,211.714 79.171,210.659 67.583 C 210.360 64.300,210.444 22.425,210.751 21.832 C 211.125 21.107,211.232 21.096,218.203 21.004 C 226.091 20.900,225.669 21.070,225.653 18.000 C 225.640 15.256,225.878 15.339,217.950 15.336 C 209.650 15.333,210.381 15.670,210.177 11.750 C 209.827 4.997,204.433 0.455,198.027 1.520 M201.700 2.183 C 206.537 3.186,209.424 6.775,209.663 12.083 C 209.848 16.187,209.259 15.904,217.742 15.964 C 225.645 16.019,225.000 15.823,225.000 18.167 C 225.000 19.358,224.941 19.703,224.682 20.023 L 224.363 20.417 217.668 20.500 L 210.972 20.583 210.498 21.114 C 209.783 21.915,209.793 21.509,209.878 45.447 C 209.956 67.402,209.963 67.786,210.324 70.083 C 211.797 79.464,215.147 84.056,223.548 88.211 C 226.814 89.827,226.950 90.000,224.948 89.999 C 210.855 89.991,201.017 82.643,198.283 70.083 C 196.743 63.010,196.810 64.331,196.830 41.476 L 196.847 21.535 196.439 21.059 L 196.030 20.583 193.083 20.500 C 189.451 20.397,189.500 20.429,189.500 18.185 C 189.500 16.007,189.423 16.061,192.666 15.967 C 196.469 15.858,196.739 15.615,196.702 12.335 C 196.658 8.529,195.577 7.149,193.052 7.673 C 191.748 7.944,191.560 7.739,191.809 6.325 C 192.305 3.510,197.535 1.320,201.700 2.183 M279.784 15.337 C 274.821 15.781,270.031 17.196,265.167 19.653 C 261.713 21.398,261.658 21.408,260.778 20.414 C 260.396 19.982,259.663 19.195,259.150 18.666 C 255.782 15.192,248.626 15.003,243.889 18.262 C 241.945 19.599,241.889 22.873,243.814 22.593 C 246.123 22.258,246.401 22.271,246.966 22.747 C 248.299 23.868,248.333 24.645,248.333 53.385 C 248.333 77.170,248.342 77.807,248.652 78.190 L 248.970 78.583 257.971 78.629 L 266.972 78.675 267.444 78.269 C 267.914 77.864,267.917 77.853,267.917 75.853 C 267.917 73.148,267.890 73.119,265.239 72.990 C 263.435 72.902,263.294 72.869,262.869 72.444 L 262.417 71.993 262.362 59.205 C 262.289 41.972,262.429 40.095,264.162 35.179 C 266.326 29.040,269.149 25.647,274.693 22.518 C 279.906 19.576,289.569 18.693,298.417 20.351 C 303.329 21.271,303.104 21.246,303.577 20.936 C 304.438 20.372,303.882 19.867,301.143 18.724 C 297.703 17.289,295.005 16.525,289.667 15.477 C 288.578 15.263,281.696 15.165,279.784 15.337 M55.333 15.507 C 53.821 15.573,52.058 15.744,51.417 15.887 C 50.775 16.030,49.614 16.270,48.837 16.419 C 45.918 16.983,41.870 18.544,38.637 20.354 C 35.956 21.855,36.010 21.859,34.138 19.968 C 29.401 15.182,22.780 14.582,17.842 18.493 C 16.731 19.373,16.114 21.822,16.793 22.658 L 17.124 23.067 18.143 22.783 C 20.077 22.246,20.964 22.729,21.301 24.506 C 21.512 25.614,21.314 100.756,21.099 101.214 C 20.851 101.744,20.086 102.000,18.750 102.000 C 16.277 102.000,15.738 103.091,16.358 106.843 L 16.549 108.000 28.255 108.000 L 39.960 108.000 40.147 107.260 C 40.389 106.297,40.387 103.301,40.144 102.767 C 39.894 102.218,39.678 102.143,37.962 102.007 C 36.320 101.877,35.939 101.658,35.669 100.683 C 35.450 99.897,35.447 50.298,35.665 47.083 C 36.388 36.436,38.135 31.279,42.572 26.705 C 48.704 20.383,58.862 18.692,67.297 22.589 C 80.587 28.730,84.677 52.048,74.867 65.750 C 68.943 74.026,57.221 76.931,42.289 73.824 C 39.644 73.274,38.888 73.250,38.601 73.708 C 38.207 74.337,39.100 74.849,44.378 77.018 C 48.859 78.860,54.401 79.745,58.960 79.345 C 60.128 79.243,61.975 79.081,63.065 78.984 C 65.294 78.787,70.354 77.610,72.042 76.897 C 72.615 76.655,73.533 76.311,74.083 76.133 C 75.375 75.713,78.657 73.983,79.833 73.102 C 80.337 72.724,81.311 72.040,81.997 71.582 C 92.020 64.892,96.769 50.530,92.934 38.501 C 89.956 29.157,80.338 19.950,71.000 17.505 C 69.946 17.229,68.472 16.819,67.726 16.595 C 66.479 16.221,64.987 15.983,60.905 15.509 C 60.074 15.412,59.099 15.346,58.739 15.360 C 58.378 15.375,56.846 15.441,55.333 15.507 M137.583 16.012 C 123.251 17.779,111.732 26.572,107.763 38.778 C 104.927 47.499,106.881 57.799,112.864 65.667 C 120.018 75.073,135.350 80.684,148.571 78.735 C 153.092 78.068,161.674 74.851,161.803 73.775 C 161.891 73.040,161.348 72.970,159.068 73.422 C 147.170 75.781,137.611 74.834,131.167 70.659 C 125.404 66.926,120.672 58.391,120.667 51.722 C 120.666 49.826,117.727 50.000,149.664 50.000 C 173.627 50.000,177.591 49.966,178.090 49.758 C 180.177 48.886,178.729 39.262,175.716 33.984 C 168.443 21.240,153.255 14.081,137.583 16.012 M287.250 15.841 C 288.533 15.936,290.202 16.160,290.957 16.337 C 291.713 16.515,292.814 16.737,293.404 16.831 C 296.048 17.254,301.885 19.512,301.586 19.996 C 301.467 20.189,300.237 20.068,298.077 19.650 C 297.156 19.472,295.195 19.254,293.719 19.165 C 292.243 19.076,290.914 18.956,290.766 18.900 C 289.555 18.435,280.462 19.573,278.000 20.497 C 277.313 20.755,276.378 21.103,275.924 21.269 C 270.438 23.279,265.795 28.577,263.448 35.505 C 261.892 40.099,261.833 40.937,261.834 58.167 C 261.835 74.961,261.516 73.497,265.171 73.499 C 267.259 73.500,267.333 73.577,267.333 75.748 C 267.333 78.416,268.237 78.191,257.777 78.131 L 249.470 78.083 249.152 77.690 C 248.841 77.306,248.833 76.666,248.833 52.666 C 248.833 24.468,248.816 24.030,247.641 22.605 C 246.978 21.801,246.184 21.594,244.763 21.856 C 242.904 22.198,242.377 20.533,243.887 19.086 C 248.047 15.100,256.865 15.884,260.014 20.521 C 261.101 22.121,261.523 22.100,265.150 20.273 C 271.463 17.093,276.349 15.911,284.083 15.692 C 284.542 15.679,285.967 15.746,287.250 15.841 M335.583 16.033 C 320.131 18.027,307.536 28.426,304.840 41.417 C 304.296 44.040,304.072 48.378,304.392 50.116 C 304.540 50.923,304.745 52.182,304.848 52.913 C 305.305 56.175,306.977 60.127,309.482 63.866 C 318.539 77.388,339.913 83.151,355.083 76.161 C 355.725 75.865,356.700 75.475,357.250 75.294 C 359.319 74.613,360.177 73.848,359.492 73.293 C 359.026 72.916,359.068 72.913,356.465 73.494 C 341.096 76.925,328.490 73.458,322.798 64.234 C 314.842 51.340,317.602 32.089,328.543 24.165 C 329.539 23.443,330.706 22.724,331.136 22.566 C 331.565 22.409,332.570 22.030,333.369 21.724 C 338.402 19.799,346.259 20.372,351.296 23.033 C 357.865 26.502,361.349 32.601,362.696 42.986 C 362.815 43.903,362.918 50.425,362.982 61.140 L 363.083 77.862 363.551 78.265 L 364.019 78.667 372.184 78.667 L 380.348 78.667 380.758 78.258 C 381.148 77.867,381.167 77.754,381.167 75.783 C 381.167 73.265,381.101 73.167,379.291 72.974 C 376.849 72.713,377.022 73.809,377.008 58.500 C 376.994 42.030,376.722 40.053,373.637 33.941 C 371.066 28.848,363.731 21.879,358.750 19.797 C 358.383 19.644,357.082 19.101,355.858 18.591 C 352.401 17.149,347.792 16.061,344.167 15.830 C 340.719 15.610,338.443 15.664,335.583 16.033 M64.237 16.485 C 65.605 16.687,67.405 17.068,68.237 17.330 C 69.069 17.592,70.500 18.006,71.417 18.250 C 75.291 19.279,81.946 23.484,85.054 26.867 C 88.376 30.482,88.553 30.718,90.114 33.595 C 93.339 39.541,94.461 45.556,93.437 51.421 C 93.197 52.799,93.000 54.095,93.000 54.301 C 93.000 54.508,92.637 55.631,92.193 56.797 C 91.749 57.963,91.262 59.254,91.111 59.667 C 90.818 60.465,89.283 63.001,87.931 64.921 C 86.694 66.677,83.018 70.249,81.250 71.412 C 80.425 71.955,79.417 72.654,79.010 72.964 C 78.114 73.648,75.075 75.192,73.728 75.648 C 73.190 75.830,72.401 76.134,71.975 76.323 C 64.997 79.425,52.254 79.549,44.857 76.587 C 40.559 74.867,39.865 74.095,43.105 74.641 C 44.193 74.824,45.571 75.022,46.167 75.081 C 46.762 75.139,48.059 75.295,49.047 75.427 C 53.140 75.973,58.834 75.567,63.083 74.426 C 69.209 72.782,74.482 68.476,77.482 62.667 C 80.005 57.780,81.456 50.181,80.842 45.068 C 80.754 44.343,80.601 43.038,80.501 42.167 C 79.432 32.854,73.481 24.340,65.996 21.415 C 59.817 19.001,51.875 19.663,46.079 23.077 C 40.232 26.521,36.322 33.622,35.505 42.279 C 35.411 43.271,35.262 44.646,35.173 45.333 C 34.874 47.636,34.950 100.919,35.253 101.505 C 35.611 102.198,36.212 102.442,37.829 102.548 C 39.743 102.673,39.884 102.842,39.807 104.920 C 39.766 106.014,39.668 106.557,39.454 106.883 L 39.159 107.333 28.355 107.333 C 15.606 107.333,16.949 107.613,16.861 104.938 C 16.788 102.732,16.838 102.680,19.153 102.524 C 20.688 102.421,20.870 102.372,21.291 101.952 L 21.750 101.493 21.851 67.788 C 21.907 49.250,22.005 32.921,22.069 31.500 C 22.392 24.348,21.712 21.896,19.431 21.992 C 18.965 22.012,18.283 22.040,17.917 22.056 L 17.250 22.083 17.199 21.379 C 17.078 19.716,17.999 18.739,20.858 17.497 C 25.512 15.475,30.313 16.609,33.931 20.584 C 35.716 22.544,35.967 22.553,39.066 20.764 C 42.979 18.505,48.092 16.881,53.750 16.102 C 55.256 15.894,61.875 16.136,64.237 16.485 M146.932 16.502 C 153.109 17.208,158.892 19.141,163.277 21.967 C 169.930 26.252,175.018 32.412,177.073 38.667 C 178.298 42.396,178.847 47.900,178.097 48.926 C 177.865 49.244,177.332 49.252,149.555 49.333 C 122.866 49.412,121.225 49.433,120.817 49.711 C 118.696 51.152,121.320 60.617,125.307 65.903 C 131.100 73.584,142.036 76.849,154.917 74.744 C 160.553 73.823,160.610 74.285,155.123 76.413 C 138.316 82.929,115.802 74.239,109.525 58.812 C 106.299 50.883,106.182 44.596,109.110 36.583 C 112.607 27.015,125.160 17.966,136.639 16.736 C 137.984 16.592,139.571 16.415,140.167 16.342 C 142.051 16.113,143.913 16.157,146.932 16.502 M344.833 16.490 C 351.740 16.966,359.104 19.971,365.500 24.923 C 370.110 28.493,374.417 35.321,375.593 40.925 C 376.464 45.078,376.500 45.802,376.501 59.410 C 376.501 74.506,376.307 73.496,379.208 73.499 C 380.460 73.501,380.667 73.816,380.667 75.732 C 380.667 77.024,380.611 77.365,380.348 77.690 L 380.029 78.083 372.085 78.083 C 364.412 78.083,364.132 78.072,363.903 77.760 C 363.703 77.486,363.667 75.190,363.667 62.888 C 363.667 42.816,363.435 40.164,361.119 33.667 C 357.748 24.211,348.523 18.945,337.447 20.153 C 335.566 20.358,334.921 20.532,331.968 21.627 C 326.432 23.679,320.938 30.335,319.072 37.250 C 315.395 50.869,319.432 65.121,328.657 71.088 C 334.893 75.122,344.264 76.359,354.667 74.519 C 356.055 74.274,357.500 74.131,357.500 74.239 C 357.500 74.712,351.876 76.890,348.333 77.788 L 345.917 78.400 340.917 78.387 C 335.810 78.374,335.371 78.335,332.000 77.590 C 328.264 76.765,326.428 76.130,322.083 74.162 C 317.165 71.934,310.709 65.678,308.174 60.685 C 307.035 58.441,305.595 54.441,305.423 53.040 C 305.369 52.606,305.200 51.444,305.048 50.458 C 303.994 43.662,306.478 35.263,311.246 29.497 C 316.224 23.477,325.699 18.049,333.083 16.987 C 339.189 16.109,339.260 16.106,344.833 16.490 M139.301 20.164 C 132.397 21.031,126.123 25.804,123.000 32.564 C 120.799 37.328,119.745 43.149,120.879 44.286 L 121.341 44.750 142.629 44.790 C 165.885 44.834,164.503 44.893,165.048 43.831 C 165.479 42.990,165.003 39.366,164.085 36.500 C 163.865 35.813,163.599 34.912,163.494 34.500 C 162.001 28.629,155.808 22.361,150.159 21.005 C 149.384 20.819,148.375 20.545,147.917 20.397 C 146.948 20.084,141.181 19.928,139.301 20.164 M148.850 21.263 C 155.543 22.896,161.145 28.224,162.934 34.658 C 163.075 35.167,163.370 36.146,163.590 36.833 C 164.550 39.843,164.864 43.085,164.264 43.782 L 163.862 44.250 142.861 44.250 L 121.860 44.250 121.430 43.846 C 120.402 42.880,121.338 37.704,123.382 33.056 C 127.659 23.331,137.898 18.590,148.850 21.263 " stroke="none" fill="#7a1f7a" fill-rule="evenodd"></path><path id="path3" d="M198.500 1.196 C 193.927 1.848,191.112 4.014,190.882 7.059 C 190.753 8.766,190.833 8.816,193.333 8.580 C 195.423 8.384,195.831 8.988,195.832 12.282 C 195.833 14.009,195.804 14.183,195.436 14.610 L 195.038 15.073 192.254 15.161 C 188.693 15.275,188.415 15.583,188.731 19.063 C 188.921 21.164,189.148 21.293,192.690 21.317 C 194.769 21.331,195.184 21.377,195.498 21.631 L 195.865 21.929 195.842 41.006 C 195.817 61.968,195.851 62.819,196.909 67.498 C 197.126 68.462,197.358 69.587,197.422 70.000 C 197.487 70.412,197.869 71.746,198.270 72.964 C 202.161 84.758,210.207 90.093,225.355 90.922 C 230.830 91.222,231.762 90.441,227.641 89.007 C 217.604 85.513,212.693 80.029,211.235 70.686 C 210.715 67.353,210.348 23.526,210.830 22.259 C 211.179 21.340,211.221 21.334,217.912 21.324 C 224.796 21.313,225.065 21.279,225.549 20.333 C 226.023 19.407,225.900 16.158,225.371 15.629 L 224.991 15.250 218.148 15.167 L 211.304 15.083 210.902 14.616 C 210.541 14.196,210.500 13.992,210.497 12.616 C 210.484 6.681,207.533 2.837,201.891 1.406 C 200.164 0.968,200.118 0.965,198.500 1.196 M201.717 1.597 C 206.913 2.741,209.895 6.320,210.177 11.750 C 210.381 15.670,209.650 15.333,217.950 15.336 C 225.878 15.339,225.640 15.256,225.653 18.000 C 225.669 21.070,226.091 20.900,218.203 21.004 C 211.232 21.096,211.125 21.107,210.751 21.832 C 210.444 22.425,210.360 64.300,210.659 67.583 C 211.714 79.171,216.222 85.109,226.917 88.998 C 230.436 90.278,230.300 90.660,226.324 90.664 C 210.294 90.681,200.135 83.105,197.500 69.172 C 197.318 68.207,197.092 67.154,196.998 66.833 C 196.239 64.237,196.167 62.035,196.167 41.531 C 196.167 28.663,196.109 21.870,195.998 21.663 C 195.734 21.170,194.775 21.002,192.227 21.001 C 189.067 21.000,189.104 21.028,189.027 18.503 C 188.932 15.398,189.001 15.333,192.384 15.333 C 195.956 15.333,196.092 15.213,196.067 12.078 C 196.039 8.743,195.375 7.937,192.975 8.327 C 190.959 8.655,190.639 8.124,191.342 5.620 C 192.093 2.941,197.788 0.732,201.717 1.597 M281.917 14.948 C 275.305 15.382,270.513 16.670,264.854 19.536 C 261.637 21.165,261.613 21.166,260.417 19.667 C 256.721 15.035,249.421 14.327,243.804 18.055 C 241.510 19.577,241.776 23.517,244.127 22.841 C 246.043 22.290,246.717 22.459,247.319 23.638 C 247.960 24.895,248.000 26.579,248.000 52.415 C 248.000 79.340,247.962 78.183,248.861 78.695 C 249.428 79.018,266.506 79.020,267.270 78.697 C 268.012 78.384,268.167 77.889,268.167 75.833 C 268.167 73.025,268.009 72.855,265.281 72.711 C 263.647 72.624,263.387 72.569,263.049 72.231 L 262.667 71.848 262.668 57.883 C 262.670 40.470,262.718 39.859,264.460 35.000 C 267.111 27.607,271.308 23.613,279.250 20.926 C 284.044 19.304,293.953 19.403,301.333 21.148 C 303.173 21.583,304.532 21.221,304.261 20.367 C 304.088 19.824,303.639 19.537,301.577 18.650 C 295.328 15.963,287.867 14.558,281.917 14.948 M54.333 15.338 C 53.188 15.403,51.725 15.574,51.083 15.718 C 50.442 15.862,49.304 16.098,48.556 16.242 C 45.929 16.748,41.532 18.462,38.523 20.153 C 36.067 21.534,36.032 21.530,34.210 19.697 C 30.287 15.750,25.453 14.641,20.865 16.636 C 17.084 18.279,16.333 19.120,16.333 21.709 C 16.333 23.095,16.751 23.434,18.000 23.061 C 20.898 22.195,21.258 22.931,21.236 29.667 C 21.228 32.004,21.161 48.981,21.087 67.393 L 20.954 100.869 20.594 101.287 C 20.269 101.665,20.068 101.717,18.525 101.824 C 16.080 101.993,16.083 101.989,16.083 105.047 C 16.083 106.713,16.148 107.516,16.301 107.750 C 16.496 108.050,16.509 108.025,16.429 107.500 C 15.756 103.093,16.218 102.000,18.750 102.000 C 20.086 102.000,20.851 101.744,21.099 101.214 C 21.314 100.756,21.512 25.614,21.301 24.506 C 20.964 22.729,20.077 22.246,18.143 22.783 L 17.124 23.067 16.793 22.658 C 16.114 21.822,16.731 19.373,17.842 18.493 C 22.780 14.582,29.401 15.182,34.138 19.968 C 36.010 21.859,35.956 21.855,38.637 20.354 C 41.870 18.544,45.918 16.983,48.837 16.419 C 49.614 16.270,50.775 16.032,51.417 15.892 C 53.049 15.535,59.025 15.297,60.917 15.513 C 64.877 15.966,66.476 16.220,67.726 16.595 C 68.472 16.819,69.946 17.229,71.000 17.505 C 80.338 19.950,89.956 29.157,92.934 38.501 C 96.769 50.530,92.020 64.892,81.997 71.582 C 81.311 72.040,80.337 72.724,79.833 73.102 C 78.657 73.983,75.375 75.713,74.083 76.133 C 73.533 76.311,72.615 76.655,72.042 76.897 C 70.354 77.610,65.294 78.787,63.065 78.984 C 61.975 79.081,60.128 79.243,58.960 79.345 C 54.401 79.745,48.859 78.860,44.378 77.018 C 39.100 74.849,38.207 74.337,38.601 73.708 C 38.888 73.250,39.644 73.274,42.289 73.824 C 57.221 76.931,68.943 74.026,74.867 65.750 C 84.677 52.048,80.587 28.730,67.297 22.589 C 58.862 18.692,48.704 20.383,42.572 26.705 C 38.135 31.279,36.388 36.436,35.665 47.083 C 35.447 50.298,35.450 99.897,35.669 100.683 C 35.939 101.658,36.320 101.877,37.962 102.007 C 39.716 102.146,39.913 102.220,40.169 102.839 C 40.381 103.350,40.317 106.912,40.084 107.625 C 40.009 107.853,40.029 108.000,40.135 108.000 C 40.503 108.000,40.757 103.872,40.456 102.795 C 40.280 102.165,39.549 101.833,38.336 101.833 C 37.183 101.833,36.277 101.518,36.013 101.025 C 35.699 100.438,35.768 48.291,36.088 44.495 C 37.310 29.996,43.545 22.372,55.319 20.978 C 64.763 19.860,72.310 24.058,76.912 32.989 C 82.703 44.226,80.284 61.381,71.866 68.777 C 65.293 74.552,54.310 76.319,42.167 73.555 C 39.178 72.874,38.167 72.971,38.167 73.937 C 38.167 74.473,38.627 74.896,39.603 75.255 C 40.050 75.419,41.279 75.945,42.333 76.423 C 48.737 79.325,55.141 80.209,62.969 79.271 C 68.573 78.600,76.726 75.813,79.449 73.639 C 79.798 73.360,80.831 72.638,81.745 72.034 C 83.683 70.753,87.330 67.229,88.547 65.459 C 93.111 58.828,94.884 52.964,94.494 45.801 C 93.958 35.975,88.811 27.488,79.695 21.397 C 78.105 20.334,73.855 18.167,72.574 17.765 C 65.059 15.407,61.494 14.933,54.333 15.338 M289.667 15.477 C 295.005 16.525,297.703 17.289,301.143 18.724 C 303.882 19.867,304.438 20.372,303.577 20.936 C 303.104 21.246,303.329 21.271,298.417 20.351 C 283.116 17.484,270.997 21.524,265.853 31.206 C 262.637 37.259,262.281 40.116,262.362 59.205 L 262.417 71.993 262.869 72.444 C 263.294 72.869,263.435 72.902,265.239 72.990 C 267.890 73.119,267.917 73.148,267.917 75.853 C 267.917 77.853,267.914 77.864,267.444 78.269 L 266.972 78.675 257.971 78.629 L 248.970 78.583 248.652 78.190 C 248.342 77.807,248.333 77.170,248.333 53.385 C 248.333 19.870,248.630 21.894,243.814 22.593 C 241.889 22.873,241.945 19.599,243.889 18.262 C 248.626 15.003,255.782 15.192,259.150 18.666 C 259.663 19.195,260.396 19.982,260.778 20.414 C 261.658 21.408,261.713 21.398,265.167 19.653 C 270.031 17.196,274.821 15.781,279.784 15.337 C 281.696 15.165,288.578 15.263,289.667 15.477 M140.583 15.506 C 126.033 16.488,114.821 23.460,108.770 35.289 C 108.495 35.827,107.008 40.323,106.689 41.583 C 105.423 46.581,106.803 55.815,109.582 60.935 C 114.721 70.403,125.683 77.678,136.667 78.910 C 138.590 79.126,144.446 79.458,145.083 79.387 C 151.218 78.708,153.900 77.980,159.558 75.457 C 161.856 74.432,162.393 74.041,162.214 73.523 C 161.945 72.742,161.296 72.673,158.992 73.180 C 137.712 77.860,123.356 70.185,120.995 52.865 C 120.760 51.141,120.953 50.563,121.848 50.312 C 122.069 50.250,134.751 50.192,150.031 50.183 C 167.240 50.173,177.971 50.106,178.230 50.007 C 179.114 49.672,179.253 49.170,179.223 46.424 C 179.034 28.954,160.543 14.158,140.583 15.506 M339.000 15.457 C 320.288 16.547,305.461 28.989,304.162 44.691 C 303.941 47.359,303.963 49.131,304.232 50.447 C 304.360 51.072,304.517 52.100,304.582 52.732 C 304.890 55.773,306.739 60.187,309.313 64.030 C 312.108 68.203,317.803 73.152,321.954 75.017 C 333.710 80.299,345.472 80.781,355.167 76.378 C 355.762 76.108,356.662 75.752,357.167 75.587 C 361.362 74.216,361.095 72.088,356.861 73.156 C 346.671 75.726,335.474 74.613,329.047 70.392 C 318.160 63.241,315.102 44.198,322.713 30.945 C 324.601 27.656,328.786 23.656,331.302 22.733 C 331.732 22.575,332.726 22.201,333.512 21.900 C 334.793 21.410,335.727 21.225,339.250 20.761 C 340.109 20.648,344.007 21.003,345.743 21.353 C 355.003 23.218,360.872 30.417,362.236 41.583 C 362.785 46.073,362.837 47.921,362.835 62.697 C 362.834 71.763,362.896 77.809,362.992 78.062 C 363.311 78.901,363.413 78.913,371.000 78.973 C 381.965 79.059,381.417 79.224,381.417 75.833 C 381.417 73.124,381.285 72.931,379.304 72.736 C 378.371 72.644,378.016 72.531,377.718 72.233 L 377.333 71.848 377.333 59.383 C 377.333 44.859,377.073 41.412,375.747 38.333 C 375.529 37.829,375.149 36.892,374.902 36.250 C 372.389 29.728,364.884 22.068,358.417 19.424 C 357.775 19.162,356.613 18.668,355.833 18.326 C 352.467 16.850,347.395 15.731,343.417 15.586 C 341.858 15.529,340.433 15.465,340.250 15.443 C 340.067 15.422,339.504 15.428,339.000 15.457 M147.216 15.926 C 162.696 17.625,175.896 28.520,178.605 41.833 C 178.932 43.441,179.102 48.411,178.852 49.050 C 178.458 50.054,180.117 50.000,149.664 50.000 C 119.956 50.000,121.072 49.971,120.770 50.757 C 120.274 52.051,121.465 57.468,122.983 60.824 C 128.435 72.873,140.531 77.096,159.068 73.422 C 161.348 72.970,161.891 73.040,161.803 73.775 C 161.674 74.851,153.092 78.068,148.571 78.735 C 135.350 80.684,120.018 75.073,112.864 65.667 C 100.947 49.997,106.196 29.211,124.384 20.040 C 127.432 18.503,131.682 16.962,134.167 16.494 C 138.283 15.717,143.313 15.498,147.216 15.926 M344.167 15.830 C 347.792 16.061,352.401 17.149,355.858 18.591 C 357.082 19.101,358.383 19.644,358.750 19.797 C 363.731 21.879,371.066 28.848,373.637 33.941 C 376.722 40.053,376.994 42.030,377.008 58.500 C 377.022 73.809,376.849 72.713,379.291 72.974 C 381.101 73.167,381.167 73.265,381.167 75.783 C 381.167 77.754,381.148 77.867,380.758 78.258 L 380.348 78.667 372.184 78.667 L 364.019 78.667 363.551 78.265 L 363.083 77.862 362.982 61.140 C 362.918 50.425,362.815 43.903,362.696 42.986 C 361.349 32.601,357.865 26.502,351.296 23.033 C 346.259 20.372,338.402 19.799,333.369 21.724 C 332.570 22.030,331.565 22.409,331.136 22.566 C 330.706 22.724,329.539 23.443,328.543 24.165 C 317.602 32.089,314.842 51.340,322.798 64.234 C 328.490 73.458,341.096 76.925,356.465 73.494 C 359.068 72.913,359.026 72.916,359.492 73.293 C 360.177 73.848,359.319 74.613,357.250 75.294 C 356.700 75.475,355.725 75.865,355.083 76.161 C 339.913 83.151,318.539 77.388,309.482 63.866 C 306.977 60.127,305.305 56.175,304.848 52.913 C 304.745 52.182,304.540 50.923,304.392 50.116 C 303.577 45.688,305.061 38.464,307.758 33.720 C 314.619 21.652,328.501 14.831,344.167 15.830 M139.284 20.760 C 131.148 21.997,125.154 27.378,122.224 36.077 C 121.001 39.707,120.653 43.116,121.430 43.846 L 121.860 44.250 142.861 44.250 L 163.862 44.250 164.264 43.782 C 164.864 43.085,164.550 39.843,163.590 36.833 C 163.370 36.146,163.075 35.167,162.934 34.658 C 160.277 25.104,150.091 19.118,139.284 20.760 M144.500 20.825 C 153.430 21.390,160.318 26.662,162.691 34.750 C 162.879 35.392,163.174 36.310,163.347 36.791 C 163.709 37.798,164.356 41.368,164.392 42.556 C 164.440 44.143,166.580 44.000,142.807 44.000 L 121.985 44.000 121.576 43.591 C 121.061 43.076,121.047 42.392,121.499 39.878 C 123.328 29.721,130.092 22.426,138.917 21.092 C 141.950 20.634,141.676 20.647,144.500 20.825 " stroke="none" fill="#ed0e15" fill-rule="evenodd"></path><path id="path4" d="M198.167 0.618 C 193.322 1.457,190.526 3.821,190.223 7.333 C 190.053 9.306,190.456 9.520,193.502 9.075 C 194.864 8.876,195.321 9.658,195.329 12.200 C 195.336 14.475,195.347 14.468,191.887 14.537 C 188.563 14.602,188.202 14.948,188.187 18.083 C 188.172 21.481,188.420 21.722,192.062 21.833 C 194.022 21.893,194.860 21.981,195.058 22.145 C 195.311 22.356,195.333 23.938,195.333 41.668 C 195.333 62.394,195.367 63.303,196.267 67.167 C 196.406 67.762,196.665 68.973,196.844 69.856 C 198.163 76.392,202.350 83.330,206.645 86.099 C 207.161 86.432,207.792 86.850,208.047 87.027 C 210.227 88.549,214.725 90.099,219.083 90.831 C 223.528 91.577,230.454 91.729,231.634 91.106 C 233.015 90.377,232.592 90.039,228.651 88.723 C 217.754 85.085,212.748 79.471,211.661 69.667 C 211.205 65.553,210.912 24.742,211.326 22.938 C 211.569 21.878,211.275 21.924,218.466 21.833 C 226.742 21.729,226.205 21.965,226.304 18.392 C 226.415 14.404,226.821 14.597,218.208 14.535 L 211.498 14.486 211.268 14.118 C 211.115 13.874,211.009 12.984,210.950 11.472 C 210.821 8.127,209.952 6.086,207.733 3.917 C 205.274 1.514,201.168 0.097,198.167 0.618 M201.891 1.406 C 207.533 2.837,210.484 6.681,210.497 12.616 C 210.500 13.992,210.541 14.196,210.902 14.616 L 211.304 15.083 218.148 15.167 L 224.991 15.250 225.371 15.629 C 225.900 16.158,226.023 19.407,225.549 20.333 C 225.065 21.279,224.796 21.313,217.912 21.324 C 211.221 21.334,211.179 21.340,210.830 22.259 C 210.348 23.526,210.715 67.353,211.235 70.686 C 212.693 80.029,217.604 85.513,227.641 89.007 C 231.762 90.441,230.830 91.222,225.355 90.922 C 210.207 90.093,202.161 84.758,198.270 72.964 C 197.869 71.746,197.487 70.412,197.422 70.000 C 197.358 69.587,197.126 68.462,196.909 67.498 C 195.851 62.819,195.817 61.968,195.842 41.006 L 195.865 21.929 195.498 21.631 C 195.184 21.377,194.769 21.331,192.690 21.317 C 189.148 21.293,188.921 21.164,188.731 19.063 C 188.415 15.583,188.693 15.275,192.254 15.161 L 195.038 15.073 195.436 14.610 C 195.804 14.183,195.833 14.009,195.832 12.282 C 195.831 8.988,195.423 8.384,193.333 8.580 C 190.833 8.816,190.753 8.766,190.882 7.059 C 191.112 4.014,193.927 1.848,198.500 1.196 C 200.118 0.965,200.164 0.968,201.891 1.406 M280.667 14.449 C 275.178 14.868,269.836 16.383,264.844 18.936 C 261.842 20.471,261.749 20.475,260.684 19.125 C 257.277 14.805,251.032 13.863,245.034 16.765 C 242.399 18.040,241.667 18.943,241.667 20.917 C 241.667 23.284,242.646 23.995,244.837 23.216 C 246.322 22.689,246.873 23.270,247.249 25.762 C 247.462 27.175,247.498 31.086,247.499 52.547 C 247.500 79.934,247.448 78.464,248.437 79.112 C 248.873 79.398,249.471 79.417,258.076 79.417 C 269.532 79.417,268.704 79.688,268.734 75.917 C 268.760 72.685,268.461 72.347,265.454 72.204 C 262.859 72.081,263.131 73.999,263.210 56.386 L 263.277 41.417 263.722 39.417 C 265.998 29.192,272.210 22.696,281.333 21.001 C 282.296 20.822,283.496 20.591,284.000 20.486 C 286.975 19.871,295.974 20.520,301.500 21.750 C 304.315 22.376,305.924 21.231,304.504 19.613 C 303.731 18.732,297.738 16.372,294.673 15.740 C 293.982 15.598,292.742 15.330,291.917 15.145 C 288.735 14.434,284.390 14.165,280.667 14.449 M55.333 14.750 C 53.362 14.866,51.450 15.042,51.083 15.141 C 50.717 15.241,49.611 15.477,48.627 15.667 C 45.766 16.218,41.709 17.769,38.418 19.571 C 36.161 20.806,36.027 20.805,34.898 19.538 C 30.415 14.505,23.551 13.740,17.705 17.621 C 16.401 18.486,15.951 19.358,15.863 21.189 C 15.735 23.861,16.087 24.248,18.099 23.651 C 20.508 22.936,20.727 23.390,20.715 29.083 C 20.653 59.085,20.476 99.574,20.405 100.125 C 20.288 101.026,20.097 101.123,18.068 101.310 C 16.532 101.451,16.406 101.491,15.967 101.983 L 15.500 102.505 15.500 104.989 C 15.500 107.704,15.550 108.000,16.014 108.000 C 16.279 108.000,16.307 107.919,16.204 107.458 C 16.138 107.160,16.083 105.962,16.083 104.796 C 16.083 102.025,16.111 101.991,18.525 101.824 C 20.068 101.717,20.269 101.665,20.594 101.287 L 20.954 100.869 21.087 67.393 C 21.161 48.981,21.228 32.004,21.236 29.667 C 21.258 22.931,20.898 22.195,18.000 23.061 C 16.751 23.434,16.333 23.095,16.333 21.709 C 16.333 19.120,17.084 18.279,20.865 16.636 C 25.453 14.641,30.287 15.750,34.210 19.697 C 36.032 21.530,36.067 21.534,38.523 20.153 C 41.521 18.468,45.907 16.757,48.556 16.238 C 49.304 16.091,50.629 15.833,51.500 15.665 C 56.261 14.744,63.663 15.175,68.917 16.678 C 73.126 17.882,73.870 18.165,76.407 19.529 C 87.567 25.525,93.889 34.708,94.494 45.801 C 94.884 52.964,93.111 58.828,88.547 65.459 C 87.330 67.229,83.683 70.753,81.745 72.034 C 80.831 72.638,79.798 73.360,79.449 73.639 C 76.726 75.813,68.573 78.600,62.969 79.271 C 55.141 80.209,48.737 79.325,42.333 76.423 C 41.279 75.945,40.050 75.419,39.603 75.255 C 38.627 74.896,38.167 74.473,38.167 73.937 C 38.167 72.971,39.178 72.874,42.167 73.555 C 66.684 79.136,82.055 66.792,79.836 43.304 C 78.295 26.979,65.055 17.274,50.667 21.921 C 41.829 24.776,37.138 32.039,36.088 44.495 C 35.768 48.291,35.699 100.438,36.013 101.025 C 36.277 101.518,37.183 101.833,38.336 101.833 C 40.509 101.833,40.964 102.939,40.450 106.958 C 40.339 107.823,40.358 108.000,40.561 108.000 C 40.909 108.000,41.167 106.629,41.166 104.783 C 41.164 101.978,40.818 101.499,38.661 101.314 C 36.959 101.167,36.726 101.077,36.517 100.478 C 36.045 99.123,36.338 45.184,36.834 42.167 C 37.956 35.344,39.155 32.063,41.766 28.667 C 47.925 20.655,61.625 18.831,69.603 24.961 C 83.103 35.332,82.825 61.149,69.116 70.237 C 62.929 74.338,51.586 75.408,41.526 72.840 C 37.226 71.742,35.473 74.268,39.465 75.811 C 40.172 76.084,41.575 76.677,42.583 77.130 C 48.310 79.700,53.414 80.512,60.721 80.017 C 64.724 79.745,69.615 78.728,72.417 77.585 C 73.150 77.285,74.050 76.946,74.417 76.830 C 75.455 76.503,78.854 74.759,79.676 74.131 C 80.083 73.820,81.092 73.125,81.917 72.585 C 83.665 71.441,87.797 67.485,88.925 65.876 C 92.649 60.560,94.286 56.341,94.985 50.250 C 95.177 48.575,94.962 42.777,94.659 41.500 C 93.782 37.792,92.147 34.014,89.863 30.417 C 88.695 28.576,85.036 24.623,83.500 23.541 C 82.904 23.122,82.028 22.451,81.552 22.052 C 79.692 20.489,73.830 17.397,71.833 16.926 C 71.146 16.764,69.772 16.379,68.781 16.071 C 66.567 15.383,65.777 15.237,62.500 14.914 C 61.079 14.774,59.692 14.632,59.417 14.599 C 59.142 14.566,57.304 14.634,55.333 14.750 M140.333 14.937 C 135.349 15.402,133.463 15.762,129.930 16.919 C 125.875 18.246,121.590 20.350,119.319 22.129 C 118.532 22.746,117.312 23.698,116.607 24.246 C 113.866 26.374,110.461 30.798,108.335 34.992 C 104.669 42.223,105.033 54.172,109.138 61.333 C 115.988 73.287,128.541 79.980,144.145 79.999 C 150.300 80.006,163.000 75.699,163.000 73.604 C 163.000 72.283,161.612 72.075,157.768 72.823 C 140.309 76.218,128.686 71.941,123.584 60.244 C 122.058 56.745,121.081 51.906,121.751 51.165 C 122.049 50.836,122.310 50.833,149.901 50.821 C 179.776 50.807,178.733 50.838,179.399 49.945 C 180.339 48.686,179.815 42.637,178.387 38.250 C 173.800 24.160,156.310 13.445,140.333 14.937 M287.429 15.007 C 293.776 15.613,303.761 18.793,304.261 20.367 C 304.532 21.221,303.173 21.583,301.333 21.148 C 293.953 19.403,284.044 19.304,279.250 20.926 C 271.308 23.613,267.111 27.607,264.460 35.000 C 262.718 39.859,262.670 40.470,262.668 57.883 L 262.667 71.848 263.049 72.231 C 263.387 72.569,263.647 72.624,265.281 72.711 C 268.009 72.855,268.167 73.025,268.167 75.833 C 268.167 77.889,268.012 78.384,267.270 78.697 C 266.506 79.020,249.428 79.018,248.861 78.695 C 247.962 78.183,248.000 79.340,248.000 52.415 C 248.000 26.579,247.960 24.895,247.319 23.638 C 246.717 22.459,246.043 22.290,244.127 22.841 C 241.776 23.517,241.510 19.577,243.804 18.055 C 249.421 14.327,256.721 15.035,260.417 19.667 C 261.613 21.166,261.637 21.165,264.854 19.536 C 272.000 15.917,280.048 14.303,287.429 15.007 M337.417 15.025 C 335.061 15.285,331.606 15.836,330.833 16.073 C 318.033 20.008,310.963 25.490,306.003 35.329 C 304.292 38.721,302.947 46.336,303.498 49.500 C 303.586 50.004,303.813 51.407,304.003 52.617 C 305.597 62.787,313.498 72.201,324.083 76.541 C 327.999 78.147,331.747 79.157,335.000 79.485 C 343.815 80.372,349.077 79.696,355.333 76.875 C 355.929 76.606,356.829 76.251,357.333 76.087 C 360.420 75.077,361.475 73.930,360.431 72.718 C 359.901 72.103,358.794 72.101,356.250 72.712 C 354.522 73.127,352.240 73.481,349.000 73.838 C 330.833 75.838,319.018 65.364,319.102 47.333 C 319.117 44.043,319.176 43.150,319.470 41.750 C 319.662 40.833,319.902 39.608,320.003 39.027 C 320.466 36.364,323.554 29.959,325.079 28.500 C 325.414 28.179,325.982 27.536,326.342 27.071 C 327.363 25.749,330.664 23.472,332.374 22.908 C 333.131 22.659,333.951 22.353,334.197 22.229 C 335.855 21.392,340.987 21.155,344.750 21.742 C 352.206 22.906,357.646 27.601,360.123 35.012 C 361.993 40.603,362.032 41.111,362.152 61.417 C 362.257 79.321,362.214 78.529,363.123 79.125 C 363.729 79.522,380.037 79.577,380.966 79.185 C 381.843 78.815,382.000 78.310,382.000 75.849 C 382.000 72.787,381.799 72.480,379.631 72.249 C 377.727 72.045,377.931 73.606,377.819 58.389 C 377.697 41.889,377.680 41.715,375.585 36.500 C 373.844 32.166,372.279 29.806,368.750 26.197 C 366.112 23.498,360.788 19.677,358.500 18.841 C 357.904 18.623,356.703 18.128,355.830 17.740 C 351.080 15.631,342.873 14.421,337.417 15.025 M147.083 15.680 C 164.737 17.430,179.057 31.128,179.223 46.424 C 179.253 49.170,179.114 49.672,178.230 50.007 C 177.971 50.106,167.240 50.173,150.031 50.183 C 134.751 50.192,122.069 50.250,121.848 50.312 C 120.953 50.563,120.760 51.141,120.995 52.865 C 123.356 70.185,137.712 77.860,158.992 73.180 C 161.296 72.673,161.945 72.742,162.214 73.523 C 162.393 74.041,161.856 74.432,159.558 75.457 C 153.900 77.980,151.218 78.708,145.083 79.387 C 144.446 79.458,138.590 79.126,136.667 78.910 C 125.683 77.678,114.721 70.403,109.582 60.935 C 106.803 55.815,105.423 46.581,106.689 41.583 C 107.008 40.323,108.495 35.827,108.770 35.289 C 115.777 21.592,130.534 14.039,147.083 15.680 M343.417 15.586 C 347.395 15.731,352.467 16.850,355.833 18.326 C 356.613 18.668,357.775 19.162,358.417 19.424 C 364.884 22.068,372.389 29.728,374.902 36.250 C 375.149 36.892,375.529 37.829,375.747 38.333 C 377.073 41.412,377.333 44.859,377.333 59.383 L 377.333 71.848 377.718 72.233 C 378.016 72.531,378.371 72.644,379.304 72.736 C 381.285 72.931,381.417 73.124,381.417 75.833 C 381.417 79.224,381.965 79.059,371.000 78.973 C 363.413 78.913,363.311 78.901,362.992 78.062 C 362.896 77.809,362.834 71.763,362.835 62.697 C 362.837 47.921,362.785 46.073,362.236 41.583 C 360.872 30.417,355.003 23.218,345.743 21.353 C 344.007 21.003,340.109 20.648,339.250 20.761 C 335.727 21.225,334.793 21.410,333.512 21.900 C 332.726 22.201,331.732 22.575,331.302 22.733 C 330.873 22.890,329.706 23.610,328.709 24.332 C 314.950 34.297,315.148 61.263,329.047 70.392 C 335.474 74.613,346.671 75.726,356.861 73.156 C 358.691 72.694,359.586 72.721,359.932 73.250 C 360.440 74.025,359.489 74.828,357.167 75.587 C 356.662 75.752,355.762 76.108,355.167 76.378 C 345.472 80.781,333.710 80.299,321.954 75.017 C 317.803 73.152,312.108 68.203,309.313 64.030 C 306.739 60.187,304.890 55.773,304.582 52.732 C 304.517 52.100,304.360 51.072,304.232 50.447 C 303.849 48.574,304.015 44.336,304.586 41.441 C 307.110 28.634,319.916 17.881,334.985 15.915 C 338.105 15.508,339.635 15.371,340.250 15.443 C 340.433 15.465,341.858 15.529,343.417 15.586 M141.083 20.778 C 133.726 21.688,129.198 24.306,125.549 29.764 C 122.508 34.314,120.229 42.244,121.576 43.591 L 121.985 44.000 142.807 44.000 C 166.580 44.000,164.440 44.143,164.392 42.556 C 164.356 41.368,163.709 37.798,163.347 36.791 C 163.174 36.310,162.879 35.392,162.691 34.750 C 161.152 29.506,156.775 24.464,152.056 22.499 C 149.092 21.265,143.826 20.440,141.083 20.778 M146.003 21.511 C 153.410 22.473,158.817 26.570,161.545 33.289 C 163.097 37.110,164.230 42.508,163.611 43.127 C 163.230 43.508,123.074 43.664,122.336 43.287 C 120.728 42.467,122.869 34.754,126.004 30.075 C 129.616 24.685,133.961 22.208,141.417 21.289 C 142.121 21.203,144.520 21.318,146.003 21.511 " stroke="none" fill="#0f8cbd" fill-rule="evenodd"></path></g></svg>